<svg width="13" height="13" viewBox="0 0 13 13" fill="none" xmlns="http://www.w3.org/2000/svg">
<g clip-path="url(#clip0_2_14098)">
<path d="M11.8085 5.41678C12.0559 6.63082 11.8796 7.89297 11.309 8.99275C10.7384 10.0925 9.80807 10.9635 8.67307 11.4603C7.53807 11.9572 6.26705 12.0499 5.07196 11.7231C3.87686 11.3962 2.82994 10.6695 2.10578 9.66422C1.38161 8.65889 1.02398 7.4357 1.09253 6.19861C1.16107 4.96153 1.65164 3.78533 2.48244 2.86616C3.31323 1.947 4.43402 1.34043 5.65791 1.14761C6.8818 0.954787 8.1348 1.18737 9.20796 1.80657M4.87484 5.95819L6.49984 7.58319L11.9165 2.16652" stroke="#35E0CF" stroke-width="1.5" stroke-linecap="round"/>
</g>
<defs>
<clipPath id="clip0_2_14098">
<rect width="13" height="13" fill="white"/>
</clipPath>
</defs>
</svg>
